REM DIRINDEX 1\2,1\3,1\4
REM DIRNAME folder01,folder02,folder03,folder04
TITLE ""
FILE "138 138_TOEFL_3900.mp3" MP3
  TRACK 01 AUDIO
    TITLE "2:cjc151_6000"
    INDEX 01 00:00:00
  TRACK 02 AUDIO
    TITLE "0:"
    INDEX 01 00:01:36
  TRACK 03 AUDIO
    TITLE "3:cjc151_6001"
    INDEX 01 00:03:14
  TRACK 04 AUDIO
    TITLE "0:"
    INDEX 01 00:07:68
  TRACK 05 AUDIO
    TITLE "2:cjc151_6002"
    INDEX 01 00:09:47
  TRACK 06 AUDIO
    TITLE "0:"
    INDEX 01 00:10:65
  TRACK 07 AUDIO
    TITLE "3:cjc151_6003"
    INDEX 01 00:12:44
  TRACK 08 AUDIO
    TITLE "0:"
    INDEX 01 00:16:61
  TRACK 09 AUDIO
    TITLE "2:cjc151_6004"
    INDEX 01 00:18:39
  TRACK 10 AUDIO
    TITLE "0:"
    INDEX 01 00:19:44
  TRACK 11 AUDIO
    TITLE "3:cjc151_6005"
    INDEX 01 00:21:23
  TRACK 12 AUDIO
    TITLE "0:"
    INDEX 01 00:24:02
  TRACK 13 AUDIO
    TITLE "2:cjc151_6006"
    INDEX 01 00:25:54
  TRACK 14 AUDIO
    TITLE "0:"
    INDEX 01 00:26:69
  TRACK 15 AUDIO
    TITLE "3:cjc151_6007"
    INDEX 01 00:28:47
  TRACK 16 AUDIO
    TITLE "0:"
    INDEX 01 00:33:54
  TRACK 17 AUDIO
    TITLE "2:cjc151_6008"
    INDEX 01 00:35:31
  TRACK 18 AUDIO
    TITLE "0:"
    INDEX 01 00:36:60
  TRACK 19 AUDIO
    TITLE "3:cjc151_6009"
    INDEX 01 00:38:39
  TRACK 20 AUDIO
    TITLE "0:"
    INDEX 01 00:42:45
  TRACK 21 AUDIO
    TITLE "2:cjc151_6010"
    INDEX 01 00:44:24
  TRACK 22 AUDIO
    TITLE "0:"
    INDEX 01 00:45:39
  TRACK 23 AUDIO
    TITLE "3:cjc151_6011"
    INDEX 01 00:47:17
  TRACK 24 AUDIO
    TITLE "0:"
    INDEX 01 00:51:30
  TRACK 25 AUDIO
    TITLE "2:cjc151_6012"
    INDEX 01 00:53:09
  TRACK 26 AUDIO
    TITLE "0:"
    INDEX 01 00:54:17
  TRACK 27 AUDIO
    TITLE "3:cjc151_6013"
    INDEX 01 00:55:69
  TRACK 28 AUDIO
    TITLE "0:"
    INDEX 01 01:00:12
  TRACK 29 AUDIO
    TITLE "2:cjc151_6014"
    INDEX 01 01:01:70
  TRACK 30 AUDIO
    TITLE "0:"
    INDEX 01 01:03:02
  TRACK 31 AUDIO
    TITLE "3:cjc151_6015"
    INDEX 01 01:04:56
  TRACK 32 AUDIO
    TITLE "0:"
    INDEX 01 01:09:18
  TRACK 33 AUDIO
    TITLE "2:cjc151_6016"
    INDEX 01 01:10:73
  TRACK 34 AUDIO
    TITLE "0:"
    INDEX 01 01:12:19
  TRACK 35 AUDIO
    TITLE "3:cjc151_6017"
    INDEX 01 01:14:00
  TRACK 36 AUDIO
    TITLE "0:"
    INDEX 01 01:18:25
  TRACK 37 AUDIO
    TITLE "2:cjc151_6018"
    INDEX 01 01:20:04
  TRACK 38 AUDIO
    TITLE "0:"
    INDEX 01 01:21:25
  TRACK 39 AUDIO
    TITLE "3:cjc151_6019"
    INDEX 01 01:23:05
  TRACK 40 AUDIO
    TITLE "0:"
    INDEX 01 01:27:34
  TRACK 41 AUDIO
    TITLE "2:cjc151_6020"
    INDEX 01 01:29:05
  TRACK 42 AUDIO
    TITLE "0:"
    INDEX 01 01:30:09
  TRACK 43 AUDIO
    TITLE "3:cjc151_6021"
    INDEX 01 01:31:55
  TRACK 44 AUDIO
    TITLE "0:"
    INDEX 01 01:35:49
  TRACK 45 AUDIO
    TITLE "2:cjc151_6022"
    INDEX 01 01:37:26
  TRACK 46 AUDIO
    TITLE "0:"
    INDEX 01 01:38:45
  TRACK 47 AUDIO
    TITLE "3:cjc151_6023"
    INDEX 01 01:40:25
  TRACK 48 AUDIO
    TITLE "0:"
    INDEX 01 01:45:14
  TRACK 49 AUDIO
    TITLE "2:cjc151_6024"
    INDEX 01 01:46:68
  TRACK 50 AUDIO
    TITLE "0:"
    INDEX 01 01:47:70
  TRACK 51 AUDIO
    TITLE "3:cjc151_6025"
    INDEX 01 01:49:49
  TRACK 52 AUDIO
    TITLE "0:"
    INDEX 01 01:52:44
  TRACK 53 AUDIO
    TITLE "2:cjc151_6026"
    INDEX 01 01:54:21
  TRACK 54 AUDIO
    TITLE "0:"
    INDEX 01 01:55:34
  TRACK 55 AUDIO
    TITLE "3:cjc151_6027"
    INDEX 01 01:57:11
  TRACK 56 AUDIO
    TITLE "0:"
    INDEX 01 02:01:35
  TRACK 57 AUDIO
    TITLE "2:cjc151_6028"
    INDEX 01 02:03:14
  TRACK 58 AUDIO
    TITLE "0:"
    INDEX 01 02:04:23
  TRACK 59 AUDIO
    TITLE "3:cjc151_6029"
    INDEX 01 02:05:70
  TRACK 60 AUDIO
    TITLE "0:"
    INDEX 01 02:11:25
  TRACK 61 AUDIO
    TITLE "2:cjc151_6030"
    INDEX 01 02:13:05
  TRACK 62 AUDIO
    TITLE "0:"
    INDEX 01 02:14:08
  TRACK 63 AUDIO
    TITLE "3:cjc151_6031"
    INDEX 01 02:15:62
  TRACK 64 AUDIO
    TITLE "0:"
    INDEX 01 02:19:27
  TRACK 65 AUDIO
    TITLE "2:cjc151_6032"
    INDEX 01 02:21:06
  TRACK 66 AUDIO
    TITLE "0:"
    INDEX 01 02:22:11
  TRACK 67 AUDIO
    TITLE "3:cjc151_6033"
    INDEX 01 02:23:66
  TRACK 68 AUDIO
    TITLE "0:"
    INDEX 01 02:28:28
  TRACK 69 AUDIO
    TITLE "2:cjc151_6034"
    INDEX 01 02:30:07
  TRACK 70 AUDIO
    TITLE "0:"
    INDEX 01 02:31:24
  TRACK 71 AUDIO
    TITLE "3:cjc151_6035"
    INDEX 01 02:33:01
  TRACK 72 AUDIO
    TITLE "0:"
    INDEX 01 02:37:64
  TRACK 73 AUDIO
    TITLE "2:cjc151_6036"
    INDEX 01 02:39:41
  TRACK 74 AUDIO
    TITLE "0:"
    INDEX 01 02:40:54
  TRACK 75 AUDIO
    TITLE "3:cjc151_6037"
    INDEX 01 02:42:34
  TRACK 76 AUDIO
    TITLE "0:"
    INDEX 01 02:45:48
  TRACK 77 AUDIO
    TITLE "2:cjc151_6038"
    INDEX 01 02:47:27
  TRACK 78 AUDIO
    TITLE "0:"
    INDEX 01 02:48:38
  TRACK 79 AUDIO
    TITLE "3:cjc151_6039"
    INDEX 01 02:50:18
  TRACK 80 AUDIO
    TITLE "0:"
    INDEX 01 02:54:33
  TRACK 81 AUDIO
    TITLE "2:cjc151_6040"
    INDEX 01 02:56:12
  TRACK 82 AUDIO
    TITLE "0:"
    INDEX 01 02:57:21
  TRACK 83 AUDIO
    TITLE "3:cjc151_6041"
    INDEX 01 02:58:74
  TRACK 84 AUDIO
    TITLE "0:"
    INDEX 01 03:04:20
  TRACK 85 AUDIO
    TITLE "2:cjc151_6042"
    INDEX 01 03:05:74
  TRACK 86 AUDIO
    TITLE "0:"
    INDEX 01 03:07:22
  TRACK 87 AUDIO
    TITLE "3:cjc151_6043"
    INDEX 01 03:09:01
  TRACK 88 AUDIO
    TITLE "0:"
    INDEX 01 03:13:68
